<svg width="27" height="25" viewBox="0 0 27 25" fill="currentColor" xmlns="http://www.w3.org/2000/svg">
<path d="M19.5944 4.28125C20.7923 5.19271 21.7428 6.33854 22.4459 7.71875C23.149 9.07292 23.5006 10.5703 23.5006 12.2109C23.5006 13.9557 23.097 15.5573 22.2897 17.0156C21.4824 18.4479 20.4016 19.6068 19.0475 20.4922L18.2662 19.5156C19.4641 18.7344 20.4277 17.7057 21.1569 16.4297C21.886 15.1536 22.2506 13.7474 22.2506 12.2109C22.2506 10.7526 21.9251 9.42448 21.274 8.22656C20.649 7.0026 19.7897 5.98698 18.6959 5.17969L19.5944 4.28125ZM12.2506 4.78906C12.5631 4.78906 12.8496 4.90625 13.11 5.14062C13.3704 5.375 13.5006 5.67448 13.5006 6.03906V18.4609C13.5006 18.8255 13.3704 19.125 13.11 19.3594C12.8496 19.5938 12.5631 19.7109 12.2506 19.7109C11.9381 19.7109 11.6777 19.6198 11.4694 19.4375L7.60216 16.3125C7.3157 16.1302 7.05529 16.0391 6.82091 16.0391H4.7506C4.41206 16.0391 4.16466 15.974 4.00841 15.8438C3.85216 15.7135 3.73498 15.5703 3.65685 15.4141C3.55268 15.2318 3.5006 15.0234 3.5006 14.7891V9.71094C3.5006 9.47656 3.55268 9.26823 3.65685 9.08594C3.73498 8.92969 3.85216 8.78646 4.00841 8.65625C4.16466 8.52604 4.41206 8.46094 4.7506 8.46094H6.82091C7.05529 8.46094 7.3157 8.36979 7.60216 8.1875L11.4694 5.0625C11.7298 4.88021 11.9902 4.78906 12.2506 4.78906ZM12.2506 6.03906L8.38341 9.16406C7.88862 9.52865 7.36779 9.71094 6.82091 9.71094H4.7506V14.7891H6.82091C7.36779 14.7891 7.88862 14.9714 8.38341 15.3359L12.2506 18.4609V6.03906ZM16.899 6.97656C17.7584 7.54948 18.4485 8.29167 18.9694 9.20312C19.4902 10.1146 19.7506 11.1172 19.7506 12.2109C19.7506 13.3568 19.4641 14.3984 18.8912 15.3359C18.3444 16.2734 17.6152 17.0156 16.7037 17.5625L16.0006 16.7031V16.5078C16.7558 16.0651 17.3548 15.4661 17.7975 14.7109C18.2662 13.9557 18.5006 13.1224 18.5006 12.2109C18.5006 11.2995 18.2662 10.4661 17.7975 9.71094C17.3548 8.95573 16.7558 8.35677 16.0006 7.91406L16.899 6.97656Z" />
<path d="M4.5 9H8L12.5 5.5V19L8 15.5L4.5 15V9Z" />
</svg>
