<svg width="45" height="45" viewBox="0 0 30 31" fill="currentColor" xmlns="http://www.w3.org/2000/svg">
<path fill-rule="evenodd" clip-rule="evenodd" d="M29.4542 27C29.4542 29.2091 27.6634 31 25.4542 31H4C1.79086 31 0 29.2091 0 27V9.24072H29.4542V27ZM4.29922 15.7C4.29922 15.3134 4.61262 15 4.99922 15H7.59922C7.98582 15 8.29922 15.3134 8.29922 15.7V17.8C8.29922 18.1866 7.98582 18.5 7.59922 18.5H4.99922C4.61262 18.5 4.29922 18.1866 4.29922 17.8V15.7ZM4.99922 22.0186C4.61262 22.0186 4.29922 22.332 4.29922 22.7186V24.8186C4.29922 25.2052 4.61262 25.5186 4.99922 25.5186H7.59922C7.98582 25.5186 8.29922 25.2052 8.29922 24.8186V22.7186C8.29922 22.332 7.98582 22.0186 7.59922 22.0186H4.99922ZM13.0121 15.7C13.0121 15.3134 13.3255 15 13.7121 15H16.3121C16.6987 15 17.0121 15.3134 17.0121 15.7V17.8C17.0121 18.1866 16.6987 18.5 16.3121 18.5H13.7121C13.3255 18.5 13.0121 18.1866 13.0121 17.8V15.7ZM13.7121 22.0186C13.3255 22.0186 13.0121 22.332 13.0121 22.7186V24.8186C13.0121 25.2052 13.3255 25.5186 13.7121 25.5186H16.3121C16.6987 25.5186 17.0121 25.2052 17.0121 24.8186V22.7186C17.0121 22.332 16.6987 22.0186 16.3121 22.0186H13.7121ZM21.725 15.7C21.725 15.3134 22.0384 15 22.425 15H25.025C25.4116 15 25.725 15.3134 25.725 15.7V17.8C25.725 18.1866 25.4116 18.5 25.025 18.5H22.425C22.0384 18.5 21.725 18.1866 21.725 17.8V15.7ZM22.425 22.0186C22.0384 22.0186 21.725 22.332 21.725 22.7186V24.8186C21.725 25.2052 22.0384 25.5186 22.425 25.5186H25.025C25.4116 25.5186 25.725 25.2052 25.725 24.8186V22.7186C25.725 22.332 25.4116 22.0186 25.025 22.0186H22.425Z"/>
<path fill-rule="evenodd" clip-rule="evenodd" d="M29.4542 27C29.4542 29.2091 27.6634 31 25.4542 31H4C1.79086 31 0 29.2091 0 27V9.24072H29.4542V27ZM4.29922 15.7C4.29922 15.3134 4.61262 15 4.99922 15H7.59922C7.98582 15 8.29922 15.3134 8.29922 15.7V17.8C8.29922 18.1866 7.98582 18.5 7.59922 18.5H4.99922C4.61262 18.5 4.29922 18.1866 4.29922 17.8V15.7ZM4.99922 22.0186C4.61262 22.0186 4.29922 22.332 4.29922 22.7186V24.8186C4.29922 25.2052 4.61262 25.5186 4.99922 25.5186H7.59922C7.98582 25.5186 8.29922 25.2052 8.29922 24.8186V22.7186C8.29922 22.332 7.98582 22.0186 7.59922 22.0186H4.99922ZM13.0121 15.7C13.0121 15.3134 13.3255 15 13.7121 15H16.3121C16.6987 15 17.0121 15.3134 17.0121 15.7V17.8C17.0121 18.1866 16.6987 18.5 16.3121 18.5H13.7121C13.3255 18.5 13.0121 18.1866 13.0121 17.8V15.7ZM13.7121 22.0186C13.3255 22.0186 13.0121 22.332 13.0121 22.7186V24.8186C13.0121 25.2052 13.3255 25.5186 13.7121 25.5186H16.3121C16.6987 25.5186 17.0121 25.2052 17.0121 24.8186V22.7186C17.0121 22.332 16.6987 22.0186 16.3121 22.0186H13.7121ZM21.725 15.7C21.725 15.3134 22.0384 15 22.425 15H25.025C25.4116 15 25.725 15.3134 25.725 15.7V17.8C25.725 18.1866 25.4116 18.5 25.025 18.5H22.425C22.0384 18.5 21.725 18.1866 21.725 17.8V15.7ZM22.425 22.0186C22.0384 22.0186 21.725 22.332 21.725 22.7186V24.8186C21.725 25.2052 22.0384 25.5186 22.425 25.5186H25.025C25.4116 25.5186 25.725 25.2052 25.725 24.8186V22.7186C25.725 22.332 25.4116 22.0186 25.025 22.0186H22.425Z" />
<path d="M0 7.22217C0 5.01303 1.79086 3.22217 4 3.22217H25.4542C27.6634 3.22217 29.4542 5.01303 29.4542 7.22217V10.2222H0V7.22217Z" />
<path d="M0 7.22217C0 5.01303 1.79086 3.22217 4 3.22217H25.4542C27.6634 3.22217 29.4542 5.01303 29.4542 7.22217V10.2222H0V7.22217Z"/>
<path d="M0 3.22217H29.4542H0ZM29.4542 10.8222H0V9.62217H29.4542V10.8222ZM0 10.2222V3.22217V10.2222ZM29.4542 3.22217V10.2222V3.22217Z" fill="white"/>
<rect x="22.5" y="0.5" width="3" height="6.55556" rx="1.5"  stroke="white"/>
<rect x="4.5" y="0.5" width="3" height="6.55556" rx="1.5"  stroke="white"/>
<rect x="13.5" y="0.5" width="3" height="6.55556" rx="1.5"  stroke="white"/>
</svg>
