<svg width="24" height="19" viewBox="0 0 24 19" fill="currentColor" xmlns="http://www.w3.org/2000/svg">
<path d="M12 1.5C12 1.22386 12.2239 1 12.5 1H14.5C14.5 1 15 1 16 1.8C16.6124 2.28991 16.9329 3.68198 16.9905 3.95369C16.9971 3.98484 17 4.01603 17 4.04788V7V12.252C17 12.6083 16.638 12.8502 16.3088 12.714L12.3088 11.0588C12.1219 10.9815 12 10.7991 12 10.5968V1.5Z" />
<path d="M23.5 1.5C23.5 1.22386 23.2761 1 23 1H21.0878C21.0297 1 20.9729 1.00976 20.9187 1.03077C20.6018 1.15371 19.4442 1.63064 19 2.2C18.5405 2.78896 18.5023 3.91541 18.5001 3.99549C18.5 3.99877 18.5 4.00164 18.5 4.00493V7V12.252C18.5 12.6083 18.862 12.8502 19.1912 12.714L23.1912 11.0588C23.3781 10.9815 23.5 10.7991 23.5 10.5968V1.5Z" />
<path d="M1.2 16.9998V17.7998H2H15.3336H16.1336V16.9998C16.1336 12.8761 12.7906 9.53301 8.66682 9.53301C4.54308 9.53301 1.2 12.8761 1.2 16.9998Z"  stroke="white" stroke-width="1.6"/>
<circle cx="8.83278" cy="6.16677" r="4.96677"  stroke="white" stroke-width="1.6"/>
</svg>
