<svg width="20" height="20" viewBox="0 0 20 20" fill="currentColor" xmlns="http://www.w3.org/2000/svg">
<path fill-rule="evenodd" clip-rule="evenodd" d="M10.5621 1.41371C10.2641 0.489701 8.95677 0.4897 8.65871 1.41371L7.95296 3.60163C7.75278 4.22221 7.02177 4.48827 6.46953 4.14155L4.52253 2.91916C3.70026 2.40291 2.6988 3.24324 3.06442 4.14266L3.93015 6.27234C4.1757 6.87641 3.78674 7.55011 3.14083 7.63949L0.863603 7.95459C-0.0981282 8.08766 -0.325142 9.37511 0.533076 9.82909L2.5652 10.904C3.14159 11.2089 3.27668 11.9751 2.83933 12.4587L1.29741 14.1639C0.646222 14.884 1.29988 16.0162 2.24912 15.8123L4.49679 15.3295C5.13432 15.1926 5.73024 15.6926 5.7061 16.3442L5.62097 18.6416C5.58502 19.6118 6.81349 20.0589 7.40961 19.2926L8.8211 17.478C9.22146 16.9633 9.99938 16.9633 10.3997 17.478L11.8112 19.2926C12.4074 20.0589 13.6358 19.6118 13.5999 18.6416L13.5148 16.3442C13.4906 15.6926 14.0865 15.1926 14.7241 15.3295L16.9717 15.8123C17.921 16.0162 18.5746 14.884 17.9234 14.1639L16.3815 12.4587C15.9442 11.9751 16.0793 11.2089 16.6556 10.904L18.6878 9.82909C19.546 9.37511 19.319 8.08766 18.3572 7.95459L16.08 7.63949C15.4341 7.55011 15.0451 6.87641 15.2907 6.27234L16.1564 4.14266C16.522 3.24324 15.5206 2.40291 14.6983 2.91916L12.7513 4.14155C12.1991 4.48827 11.4681 4.22221 11.2679 3.60163L10.5621 1.41371ZM9.61042 13.4633C11.2673 13.4633 12.6104 12.1201 12.6104 10.4633C12.6104 8.80643 11.2673 7.46328 9.61042 7.46328C7.95357 7.46328 6.61042 8.80643 6.61042 10.4633C6.61042 12.1201 7.95357 13.4633 9.61042 13.4633Z" />
</svg>
